<svg xmlns="http://www.w3.org/2000/svg" xmlns:xlink="http://www.w3.org/1999/xlink" width="554.029" height="142.033"><defs><filter id="c" color-interpolation-filters="sRGB"><feGaussianBlur stdDeviation=".827"/></filter><linearGradient xlink:href="#a" gradientUnits="userSpaceOnUse" x1="20.256" y1="2.547" x2="20.256" y2="46.882"/><linearGradient id="a"><stop offset="0" stop-color="#8ae234"/><stop offset="1" stop-color="#4e9a06"/></linearGradient><linearGradient xlink:href="#b" gradientUnits="userSpaceOnUse" gradientTransform="matrix(2.01 0 0 2.01 66.74 64.494)" x1="6.483" y1="4.543" x2="25.364" y2="35.228"/><linearGradient id="b"><stop offset="0" stop-color="#fff" stop-opacity=".549"/><stop offset="1" stop-color="#fff" stop-opacity="0"/></linearGradient><linearGradient xlink:href="#a" id="f" gradientUnits="userSpaceOnUse" x1="20.256" y1="2.547" x2="20.256" y2="46.882"/><linearGradient xlink:href="#b" id="g" gradientUnits="userSpaceOnUse" gradientTransform="matrix(2.01 0 0 2.01 66.74 64.494)" x1="6.483" y1="4.543" x2="25.364" y2="35.228"/><linearGradient xlink:href="#a" id="d" gradientUnits="userSpaceOnUse" x1="20.256" y1="2.547" x2="20.256" y2="46.882"/><linearGradient xlink:href="#b" gradientUnits="userSpaceOnUse" gradientTransform="matrix(2.01 0 0 2.01 66.74 64.494)" x1="6.483" y1="4.543" x2="25.364" y2="35.228"/><linearGradient xlink:href="#b" id="e" gradientUnits="userSpaceOnUse" gradientTransform="matrix(2.01 0 0 2.01 409.818 109.543)" x1="6.483" y1="4.543" x2="25.364" y2="35.228"/></defs><g><path d="M411.95 85.885l-40.66 23.475-40.662 23.476V38.934l40.66 23.475z" fill-opacity=".287" filter="url(#c)"/><path d="M406.378 85.688l-36.572 21.114-36.57 21.115v-84.46l36.57 21.116z" fill="url(#d)" stroke="#366a04" stroke-width="2.009775" stroke-linejoin="round"/><path d="M335.15 123.466V46.904l66.136 38.183" stroke="url(#e)" stroke-width="2.01" fill="none"/><path d="M422.27 132.962c-3.54 0-5.308-1.77-5.308-5.31v-82.28c0-3.54 1.77-5.31 5.308-5.31h13.98c3.538 0 5.308 1.77 5.308 5.31v5.13h.354c1.71-3.775 4.6-6.753 8.67-8.936 4.07-2.182 7.875-3.273 11.414-3.274 7.078 0 12.564 1.652 16.457 4.955 3.95 3.303 6.665 6.99 8.14 11.06h.353c5.132-6.666 9.762-11 13.89-13.006 4.19-2.005 9.527-3.007 16.015-3.008 8.73 0 16.074 2.89 22.032 8.67 6.016 5.782 9.024 16.34 9.024 31.676v49.015c0 3.54-1.77 5.31-5.308 5.31h-14.156c-3.54 0-5.31-1.77-5.31-5.31V85.008c0-12.86-.884-20.97-2.653-24.33-1.712-3.363-4.78-5.044-9.203-5.044-4.13 0-7.904 2.418-11.325 7.255-3.42 4.836-5.13 14.804-5.13 29.904v34.86c0 3.538-1.77 5.308-5.31 5.308h-14.156c-3.54 0-5.31-1.77-5.31-5.31V85.01c0-12.86-.884-20.97-2.653-24.33-1.71-3.363-4.778-5.044-9.2-5.044-4.13 0-7.905 2.418-11.326 7.255-3.422 4.777-5.132 14.745-5.132 29.904v34.86c0 3.538-1.77 5.308-5.31 5.308H422.27" style="line-height:125%;-inkscape-font-specification:Istok Web Bold" font-size="181.199" font-weight="bold" letter-spacing="0" word-spacing="0" fill="#333" stroke="#292929" stroke-width="2.245" font-family="Istok Web"/><g style="text-align:start;line-height:125%;-inkscape-font-specification:PT Sans Bold" font-size="181.199" font-weight="bold" letter-spacing=".495" word-spacing="0" fill="#333" stroke="#292929" stroke-width="2.245" font-family="PT Sans"><path d="M83.495 42.362l16.49 46.387 3.26 15.04h.725l2.537-15.222 11.597-46.206h21.562l-27.904 91.506H94.366l-18.3-50.736-2.356-11.415h-.906L70.63 83.313l-17.396 50.555H35.296L6.122 42.362h25.55L44.9 87.842l2.173 16.128h.906l3.08-16.308 15.04-45.3h17.395z" style="line-height:125%;-inkscape-font-specification:PT Sans Bold"/><path d="M219.696 125.17c-3.624 2.9-8.577 5.376-14.858 7.43-6.16 1.932-12.745 2.9-19.75 2.9-14.618 0-25.31-4.23-32.073-12.685-6.765-8.577-10.147-20.295-10.147-35.153 0-15.945 3.805-27.904 11.415-35.877 7.61-7.973 18.3-11.96 32.072-11.96 4.59 0 9.06.605 13.41 1.813 4.348 1.208 8.213 3.2 11.596 5.98 3.383 2.778 6.1 6.522 8.155 11.233 2.053 4.713 3.08 10.57 3.08 17.578 0 2.537-.18 5.255-.543 8.154-.242 2.9-.665 5.92-1.27 9.06h-54.36c.364 7.61 2.297 13.348 5.8 17.214 3.624 3.865 9.422 5.798 17.395 5.798 4.953 0 9.362-.725 13.227-2.174 3.987-1.57 7.007-3.14 9.06-4.712l7.792 15.402zm54.997 6.275c-6.16 0-10.75 1.872-13.77 5.617-2.9 3.624-4.652 8.516-5.256 14.677h33.703c.483-6.524-.544-11.537-3.08-15.04-2.417-3.504-6.282-5.255-11.597-5.255z" style="line-height:125%;-inkscape-font-specification:PT Sans Bold"/><path d="M239.726 6.122h23.556V49.61h.725c2.537-2.9 5.798-5.194 9.785-6.885 3.986-1.69 8.395-2.537 13.227-2.537 10.87 0 19.146 3.745 24.823 11.234 5.8 7.37 8.698 18.664 8.698 33.885 0 16.307-4.046 28.69-12.14 37.145-7.972 8.456-18.965 12.684-32.978 12.684-7.73 0-14.798-.664-21.2-1.993-6.402-1.208-11.234-2.597-14.496-4.168V6.122zM457.533 205.67c-4.35 0-7.912 1.148-10.69 3.443-2.658 2.175-4.712 5.376-6.16 9.604v39.502c1.932.966 3.985 1.63 6.16 1.993 2.295.363 4.71.544 7.248.544 6.403 0 11.235-2.296 14.496-6.887 3.383-4.71 5.074-12.14 5.074-22.287 0-17.274-5.376-25.912-16.127-25.912z" style="line-height:125%;-inkscape-font-specification:PT Sans Bold"/></g><g><path d="M411.95 271.885l-40.66 23.475-40.662 23.476v-93.902l40.66 23.475z" fill-opacity=".287" filter="url(#c)"/><path d="M406.378 271.688l-36.572 21.114-36.57 21.115v-84.46l36.57 21.116z" fill="url(#f)" stroke="#366a04" stroke-width="2.009775" stroke-linejoin="round"/><path d="M335.15 309.466v-76.562l66.136 38.183" stroke="url(#g)" stroke-width="2.01" fill="none"/><text y="160.687" x="150.551" style="text-align:start;line-height:125%;-inkscape-font-specification:Istok Web Bold" font-size="181.199" font-weight="bold" letter-spacing="0" word-spacing="0" fill="#333" stroke="#292929" stroke-width="2.245" font-family="Istok Web" transform="translate(-88.7 -72.774) translate(343.078 231.049)"><tspan y="160.687" x="150.551" style="text-align:start;line-height:125%;-inkscape-font-specification:Istok Web Bold" font-size="181.199" font-weight="bold" font-family="Istok Web">m</tspan></text><text style="text-align:start;line-height:125%;-inkscape-font-specification:PT Sans Bold" x="-246.806" y="160.687" font-size="181.199" font-weight="bold" letter-spacing="0" word-spacing="0" fill="#333" stroke="#292929" stroke-width="2.245" font-family="PT Sans" transform="translate(-88.7 -72.774) translate(343.078 231.049)"><tspan x="-246.806" y="160.687" style="text-align:start;line-height:125%;-inkscape-font-specification:PT Sans Bold" font-size="181.199" font-weight="bold" letter-spacing=".495" font-family="PT Sans">web</tspan></text></g></g></svg>